# xmcd
#
# Track frame offsets:
#	150
#	10542
#	19505
#	31742
#	43095
#	54102
#	67215
#	77957
#	87785
#	97100
#
# Disc length: 1430 seconds
#
# Revision: 1
# Processed by: cddbd v1.5.1PL0 Copyright (c) Steve Scherf et al.
# Submitted via: EasyCDDAExtractor 7.0.6.1
#
DISCID=6f05940a
DTITLE=Faron Young - Faron Young  Country Spotlight
DYEAR=1900
DGENRE=Country
TTITLE0=Hello Walls
TTITLE1=Alone With You
TTITLE2=Sweet Dreams of You
TTITLE3=Country Girl
TTITLE4=Wine Me Up
TTITLE5=It's Four In The Morning
TTITLE6=Riverboat
TTITLE7=Goin' Steady
TTITLE8=The Comeback
TTITLE9=Live Fast Love Hard Die Young
EXTD=
EXTT0=
EXTT1=
EXTT2=
EXTT3=
EXTT4=
EXTT5=
EXTT6=
EXTT7=
EXTT8=
EXTT9=
PLAYORDER=
